<?xml version="1.0" encoding="iso-8859-1"?>
<!-- Generator: Adobe Illustrator 19.1.1, SVG Export Plug-In . SVG Version: 6.00 Build 0)  -->
<svg version="1.1" id="Layer_1" xmlns="http://www.w3.org/2000/svg" xmlns:xlink="http://www.w3.org/1999/xlink" x="0px" y="0px"
	 viewBox="0 0 40 40" style="enable-background:new 0 0 40 40;" xml:space="preserve">
<path style="fill:#8BB7F0;" d="M35,26c-1.458,0-3.563,1-5,1c-1.438,0-3.542-1-5-1c-0.772,0-1.725,0.279-2.664,0.543L20,9.054
	c-1.438,0-3.542-1-5-1s-3.563,1-5,1c-1.438,0-3.542-1-5-1c-1.148,0-2.692,0.614-4,0.877V39h23h15V26.877
	C37.692,26.614,36.148,26,35,26z"/>
<path style="fill:#4E7AB5;" d="M20,9.054c-1.438,0-3.542-1-5-1s-3.563,1-5,1c-1.438,0-3.542-1-5-1c-1.148,0-2.692,0.614-4,0.877
	v1.023c0.574-0.103,1.17-0.271,1.754-0.435C3.566,9.291,4.406,9.054,5,9.054s1.434,0.237,2.246,0.465
	C8.18,9.782,9.146,10.054,10,10.054s1.82-0.272,2.754-0.535C13.566,9.291,14.406,9.054,15,9.054s1.434,0.237,2.246,0.465
	c0.934,0.263,1.899,0.535,2.754,0.535V9.054z"/>
<path style="fill:#4E7AB5;" d="M35,26c-1.458,0-3.563,1-5,1c-1.438,0-3.542-1-5-1c-1.148,0-2.692,0.614-4,0.877v1.016
	c0.574-0.103,1.169-0.263,1.754-0.428C23.566,27.237,24.406,27,25,27s1.434,0.237,2.246,0.465C28.18,27.728,29.146,28,30,28
	s1.82-0.272,2.754-0.535C33.566,27.237,34.406,27,35,27s1.434,0.237,2.246,0.465C37.83,27.63,38.426,27.797,39,27.9v-1.023
	C37.692,26.614,36.148,26,35,26z"/>
<g>
	<path style="fill:#4B6477;" d="M14.5,38.5v-37H15c3.624,0,6.21,2.33,6.748,6.08l3.688,30.92H14.5z"/>
	<path style="fill:#36404D;" d="M15,2c3.357,0,5.753,2.165,6.25,5.627L24.874,38H15V2 M15,1h-1v38h12L22.243,7.509
		C21.649,3.375,18.723,1,15,1L15,1z"/>
</g>
</svg>
