<?xml version="1.0"?>
<svg xmlns="http://www.w3.org/2000/svg" viewBox="0 0 24 24">
    <path d="M 14.5 2 C 10.358 2 7 5.358 7 9.5 C 7 10.834 6.25525 12.85525 5.53125 14.53125 L 9.46875 18.46875 C 11.14475 17.74475 13.166 17 14.5 17 C 18.642 17 22 13.642 22 9.5 C 22 5.358 18.642 2 14.5 2 z M 14.5 4 C 17.533 4 20 6.467 20 9.5 C 20 12.533 17.533 15 14.5 15 C 11.467 15 9 12.533 9 9.5 C 9 6.467 11.467 4 14.5 4 z M 13.5 5 C 13.223858 5 13 5.2238576 13 5.5 C 13 5.7761424 13.223858 6 13.5 6 C 13.776142 6 14 5.7761424 14 5.5 C 14 5.2238576 13.776142 5 13.5 5 z M 15.5 5 C 15.223858 5 15 5.2238576 15 5.5 C 15 5.7761424 15.223858 6 15.5 6 C 15.776142 6 16 5.7761424 16 5.5 C 16 5.2238576 15.776142 5 15.5 5 z M 11.5 6 C 11.223858 6 11 6.2238576 11 6.5 C 11 6.7761424 11.223858 7 11.5 7 C 11.776142 7 12 6.7761424 12 6.5 C 12 6.2238576 11.776142 6 11.5 6 z M 17.5 6 C 17.223858 6 17 6.2238576 17 6.5 C 17 6.7761424 17.223858 7 17.5 7 C 17.776142 7 18 6.7761424 18 6.5 C 18 6.2238576 17.776142 6 17.5 6 z M 18.03125 7 L 15.25 8.1875 C 15.031566 8.0632996 14.769239 8 14.5 8 C 13.671573 8 13 8.6715729 13 9.5 C 13 10.328427 13.671573 11 14.5 11 C 15.328427 11 16 10.328427 16 9.5 C 16 9.3722842 15.967537 9.2433738 15.9375 9.125 L 18.03125 7 z M 10.5 8 C 10.223858 8 10 8.2238576 10 8.5 C 10 8.7761424 10.223858 9 10.5 9 C 10.776142 9 11 8.7761424 11 8.5 C 11 8.2238576 10.776142 8 10.5 8 z M 18.5 8 C 18.223858 8 18 8.2238576 18 8.5 C 18 8.7761424 18.223858 9 18.5 9 C 18.776142 9 19 8.7761424 19 8.5 C 19 8.2238576 18.776142 8 18.5 8 z M 18.5 10 C 18.223858 10 18 10.223858 18 10.5 C 18 10.776142 18.223858 11 18.5 11 C 18.776142 11 19 10.776142 19 10.5 C 19 10.223858 18.776142 10 18.5 10 z M 17.5 12 C 17.223858 12 17 12.223858 17 12.5 C 17 12.776142 17.223858 13 17.5 13 C 17.776142 13 18 12.776142 18 12.5 C 18 12.223858 17.776142 12 17.5 12 z M 15.5 13 C 15.223858 13 15 13.223858 15 13.5 C 15 13.776142 15.223858 14 15.5 14 C 15.776142 14 16 13.776142 16 13.5 C 16 13.223858 15.776142 13 15.5 13 z M 4.90625 15.90625 C 4.47225 16.82125 4.15625 17.4375 4.15625 17.4375 C 3.9174558 17.83549 3.9934761 18.353076 4.3125 18.6875 C 4.3181188 18.69339 4.3067192 18.712969 4.3125 18.71875 L 2 21 L 3 22 L 5.28125 19.6875 L 5.3125 19.6875 C 5.6459081 20.005575 6.1342423 20.082544 6.53125 19.84375 C 6.53125 19.84375 7.17775 19.52875 8.09375 19.09375 L 4.90625 15.90625 z"/>
</svg>
